<svg width="32" height="32" viewBox="0 0 32 32" fill="none" xmlns="http://www.w3.org/2000/svg">
<path opacity="0.4" d="M8.97327 3C8.7066 3 8.45331 3.10663 8.26664 3.29329L3.3066 8.25334C2.91993 8.64 2.91993 9.28 3.3066 9.66667C3.69327 10.0533 4.33326 10.0533 4.71993 9.66667L7.98661 6.39998L7.98661 28C7.98661 28.5467 8.43995 29 8.98661 29C9.53328 29 9.98661 28.5467 9.98661 28L9.98661 6.41333L13.24 9.66667C13.6266 10.0533 14.2666 10.0533 14.6533 9.66667C14.8533 9.46666 14.9467 9.21329 14.9467 8.95996C14.9467 8.70663 14.8533 8.45334 14.6533 8.25334L9.70667 3.30664C9.61333 3.21331 9.49332 3.13333 9.35999 3.08C9.34665 3.08 9.33328 3.07998 9.31995 3.06665C9.19995 3.02665 9.09327 3 8.97327 3Z" fill="#E6EAED"/>
<path d="M22.0266 4L22.0266 25.5867L18.7733 22.3333C18.3866 21.9467 17.7466 21.9467 17.36 22.3333C16.9733 22.72 16.9733 23.36 17.36 23.7467L22.3066 28.6934C22.3999 28.7867 22.5199 28.8667 22.6533 28.92C22.6666 28.92 22.68 28.92 22.6933 28.9333C22.8 28.9733 22.92 29 23.04 29C23.3067 29 23.5599 28.8934 23.7466 28.7067L28.7067 23.7467C28.9067 23.5467 29 23.2934 29 23.04C29 22.7867 28.9067 22.5333 28.7067 22.3333C28.32 21.9467 27.6799 21.9467 27.2932 22.3333L24.0266 25.6L24.0266 4C24.0266 3.45333 23.5733 3 23.0266 3C22.48 3 22.0266 3.45333 22.0266 4Z" fill="#E6EAED"/>
</svg>
