<svg width="23" height="23" viewBox="0 0 23 23" fill="none" xmlns="http://www.w3.org/2000/svg">
<path d="M11.5 2.15625C9.65198 2.15625 7.84547 2.70425 6.30889 3.73096C4.77232 4.75766 3.57471 6.21695 2.8675 7.9243C2.1603 9.63165 1.97526 11.5104 2.33579 13.3229C2.69632 15.1354 3.58623 16.8003 4.89298 18.107C6.19972 19.4138 7.86462 20.3037 9.67713 20.6642C11.4896 21.0247 13.3684 20.8397 15.0757 20.1325C16.783 19.4253 18.2423 18.2277 19.269 16.6911C20.2958 15.1545 20.8438 13.348 20.8438 11.5C20.8411 9.02269 19.8559 6.64759 18.1041 4.89586C16.3524 3.14413 13.9773 2.15887 11.5 2.15625ZM11.5 19.4062C9.9363 19.4062 8.4077 18.9426 7.10753 18.0738C5.80735 17.2051 4.79399 15.9703 4.19558 14.5256C3.59718 13.0809 3.44061 11.4912 3.74567 9.95757C4.05073 8.4239 4.80373 7.01515 5.90944 5.90944C7.01515 4.80373 8.42391 4.05073 9.95757 3.74567C11.4912 3.4406 13.0809 3.59717 14.5256 4.19558C15.9703 4.79398 17.2051 5.80735 18.0738 7.10752C18.9426 8.4077 19.4063 9.93629 19.4063 11.5C19.4039 13.5961 18.5701 15.6057 17.0879 17.0879C15.6057 18.5701 13.5961 19.4039 11.5 19.4062ZM15.8125 11.5C15.8125 11.6906 15.7368 11.8734 15.602 12.0082C15.4672 12.143 15.2844 12.2188 15.0938 12.2188H9.64114L11.2898 13.8665C11.3565 13.9333 11.4095 14.0125 11.4457 14.0998C11.4818 14.187 11.5004 14.2806 11.5004 14.375C11.5004 14.4694 11.4818 14.563 11.4457 14.6502C11.4095 14.7375 11.3565 14.8167 11.2898 14.8835C11.223 14.9503 11.1437 15.0033 11.0565 15.0394C10.9692 15.0755 10.8757 15.0942 10.7813 15.0942C10.6868 15.0942 10.5933 15.0755 10.506 15.0394C10.4188 15.0033 10.3395 14.9503 10.2727 14.8835L7.39774 12.0085C7.33091 11.9418 7.2779 11.8625 7.24173 11.7752C7.20556 11.688 7.18694 11.5945 7.18694 11.5C7.18694 11.4055 7.20556 11.312 7.24173 11.2248C7.2779 11.1375 7.33091 11.0582 7.39774 10.9915L10.2727 8.11648C10.4076 7.98162 10.5905 7.90585 10.7813 7.90585C10.972 7.90585 11.1549 7.98162 11.2898 8.11648C11.4246 8.25135 11.5004 8.43427 11.5004 8.625C11.5004 8.81573 11.4246 8.99865 11.2898 9.13352L9.64114 10.7812H15.0938C15.2844 10.7812 15.4672 10.857 15.602 10.9918C15.7368 11.1266 15.8125 11.3094 15.8125 11.5Z" fill="#626262"/>
</svg>
