<svg width="16" height="16" viewBox="0 0 16 16" fill="none" xmlns="http://www.w3.org/2000/svg">
<path d="M8 1.33325C4.31334 1.33325 1.33334 4.31325 1.33334 7.99992C1.33334 11.6866 4.31334 14.6666 8 14.6666C11.6867 14.6666 14.6667 11.6866 14.6667 7.99992C14.6667 4.31325 11.6867 1.33325 8 1.33325ZM10.8633 9.92325C11.1229 10.1828 11.1229 10.6037 10.8633 10.8633C10.6038 11.1228 10.1829 11.1228 9.92334 10.8633L8 8.93992L6.07667 10.8633C5.8171 11.1228 5.39624 11.1228 5.13667 10.8633C4.87709 10.6037 4.8771 10.1828 5.13667 9.92325L7.06 7.99992L5.13667 6.07659C4.8771 5.81701 4.87709 5.39616 5.13667 5.13658C5.39624 4.87701 5.8171 4.87701 6.07667 5.13659L8 7.05992L9.92334 5.13659C10.1829 4.87701 10.6038 4.87701 10.8633 5.13658C11.1229 5.39616 11.1229 5.81701 10.8633 6.07658L8.94 7.99992L10.8633 9.92325Z" fill="#626262"/>
</svg>
