<svg width="16" height="16" viewBox="0 0 16 16" fill="none" xmlns="http://www.w3.org/2000/svg">
<path d="M10.7933 1.33334H5.20667C2.78 1.33334 1.33334 2.78001 1.33334 5.20668V10.7867C1.33334 13.22 2.78 14.6667 5.20667 14.6667H10.7867C13.2133 14.6667 14.66 13.22 14.66 10.7933V5.20668C14.6667 2.78001 13.22 1.33334 10.7933 1.33334ZM6.07334 11.2667C6.07334 11.4533 5.92667 11.6 5.74 11.6H3.88C3.69334 11.6 3.54667 11.4533 3.54667 11.2667V8.18668C3.54667 7.76668 3.88667 7.42668 4.30667 7.42668H5.74C5.92667 7.42668 6.07334 7.57334 6.07334 7.76001V11.2667ZM9.26 11.2667C9.26 11.4533 9.11334 11.6 8.92667 11.6H7.06667C6.88 11.6 6.73334 11.4533 6.73334 11.2667V5.16001C6.73334 4.74001 7.07334 4.40001 7.49334 4.40001H8.50667C8.92667 4.40001 9.26667 4.74001 9.26667 5.16001V11.2667H9.26ZM12.4533 11.2667C12.4533 11.4533 12.3067 11.6 12.12 11.6H10.26C10.0733 11.6 9.92667 11.4533 9.92667 11.2667V8.90001C9.92667 8.71334 10.0733 8.56668 10.26 8.56668H11.6933C12.1133 8.56668 12.4533 8.90668 12.4533 9.32668V11.2667Z" fill="#2874DA"/>
</svg>
