<svg width="13" height="14" viewBox="0 0 13 14" fill="none" xmlns="http://www.w3.org/2000/svg">
<path d="M12.3175 12.1829C12.3756 12.241 12.4217 12.3099 12.4531 12.3858C12.4845 12.4617 12.5007 12.543 12.5007 12.6251C12.5007 12.7072 12.4845 12.7885 12.4531 12.8644C12.4217 12.9403 12.3756 13.0092 12.3175 13.0673C12.2595 13.1254 12.1905 13.1714 12.1147 13.2028C12.0388 13.2343 11.9575 13.2505 11.8753 13.2505C11.7932 13.2505 11.7119 13.2343 11.636 13.2028C11.5602 13.1714 11.4912 13.1254 11.4332 13.0673L6.25035 7.8837L1.06753 13.0673C0.95026 13.1846 0.7912 13.2505 0.625347 13.2505C0.459495 13.2505 0.300435 13.1846 0.18316 13.0673C0.0658846 12.95 3.26935e-09 12.791 0 12.6251C-3.26935e-09 12.4593 0.0658846 12.3002 0.18316 12.1829L5.36675 7.0001L0.18316 1.81729C0.0658846 1.70002 0 1.54096 0 1.3751C0 1.20925 0.0658846 1.05019 0.18316 0.932916C0.300435 0.81564 0.459495 0.749756 0.625347 0.749756C0.7912 0.749756 0.95026 0.81564 1.06753 0.932916L6.25035 6.11651L11.4332 0.932916C11.5504 0.81564 11.7095 0.749756 11.8753 0.749756C12.0412 0.749756 12.2003 0.81564 12.3175 0.932916C12.4348 1.05019 12.5007 1.20925 12.5007 1.3751C12.5007 1.54096 12.4348 1.70002 12.3175 1.81729L7.13394 7.0001L12.3175 12.1829Z" fill="white"/>
</svg>
