<svg width="14" height="14" viewBox="0 0 14 14" fill="none" xmlns="http://www.w3.org/2000/svg">
<path d="M7.58332 6.85414C7.47249 6.85414 7.36165 6.81331 7.27415 6.72581C7.10499 6.55664 7.10499 6.27664 7.27415 6.10747L12.0575 1.32414C12.2267 1.15497 12.5067 1.15497 12.6758 1.32414C12.845 1.49331 12.845 1.77331 12.6758 1.94247L7.89249 6.72581C7.80499 6.81331 7.69415 6.85414 7.58332 6.85414Z" fill="#626262"/>
<path d="M12.8333 4.404C12.5942 4.404 12.3958 4.20567 12.3958 3.9665V1.604H10.0333C9.79416 1.604 9.59583 1.40567 9.59583 1.1665C9.59583 0.927337 9.79416 0.729004 10.0333 0.729004H12.8333C13.0725 0.729004 13.2708 0.927337 13.2708 1.1665V3.9665C13.2708 4.20567 13.0725 4.404 12.8333 4.404Z" fill="#626262"/>
<path d="M8.75002 13.2707H5.25002C2.08252 13.2707 0.729187 11.9173 0.729187 8.74984V5.24984C0.729187 2.08234 2.08252 0.729004 5.25002 0.729004H6.41669C6.65585 0.729004 6.85419 0.927337 6.85419 1.1665C6.85419 1.40567 6.65585 1.604 6.41669 1.604H5.25002C2.56085 1.604 1.60419 2.56067 1.60419 5.24984V8.74984C1.60419 11.439 2.56085 12.3957 5.25002 12.3957H8.75002C11.4392 12.3957 12.3959 11.439 12.3959 8.74984V7.58317C12.3959 7.344 12.5942 7.14567 12.8334 7.14567C13.0725 7.14567 13.2709 7.344 13.2709 7.58317V8.74984C13.2709 11.9173 11.9175 13.2707 8.75002 13.2707Z" fill="#626262"/>
</svg>
