<svg width="16" height="15" viewBox="0 0 16 15" fill="none" xmlns="http://www.w3.org/2000/svg">
<path d="M15.9004 0.000336531L12.4085 0.300445C12.3909 0.301962 12.3741 0.308551 12.3601 0.319417C12.3461 0.330284 12.3356 0.344965 12.3297 0.361688C12.3239 0.37841 12.3231 0.396462 12.3273 0.413664C12.3315 0.430866 12.3406 0.446484 12.3534 0.458634L13.2343 1.28939L13.0388 1.48896L12.9083 1.6221L12.246 2.30964C11.9908 2.57861 11.7366 2.84822 11.4835 3.11847C11.3021 3.31284 11.1218 3.50835 10.9425 3.705C10.5132 4.17484 10.0894 4.65003 9.67108 5.13058C9.46295 5.37162 9.25558 5.61381 9.05127 5.85868C8.99694 5.92372 8.94337 5.98953 8.88943 6.05495L8.67096 5.93214L5.26234 4.01605L4.71827 3.71035L4.3284 4.13504L3.84058 4.66648L0 8.84987L0.806524 9.6365L4.96199 5.62643H4.96237L7.39497 7.20888L8.63881 8.01809L9.0899 8.31155L9.19321 8.3785L9.78011 7.86428C10.0204 7.65347 10.257 7.43921 10.4898 7.22151C10.7236 7.00419 10.9539 6.78419 11.1835 6.56343C11.6419 6.12076 12.0935 5.67197 12.5383 5.21705C12.9852 4.76366 13.4237 4.30224 13.861 3.84005L14.5118 3.14141L14.5998 3.04538L14.8299 2.79425L15.6709 3.58746C15.6837 3.59948 15.6996 3.6076 15.7168 3.61086C15.734 3.61412 15.7518 3.61239 15.7681 3.60585C15.7843 3.59932 15.7984 3.58827 15.8086 3.57401C15.8188 3.55974 15.8246 3.54286 15.8255 3.52536L15.9999 0.0964169C16.0005 0.0833291 15.9984 0.0702508 15.9936 0.0580619C15.9888 0.0458731 15.9814 0.0348565 15.972 0.0257534C15.9626 0.0166503 15.9513 0.00967188 15.9389 0.00528769C15.9266 0.000903495 15.9134 -0.00078474 15.9004 0.000336531Z" fill="#2874DA"/>
<path d="M0.823975 14.2415C0.824091 14.3211 0.855754 14.3974 0.912024 14.4536C0.968294 14.5099 1.04458 14.5416 1.12416 14.5417H3.20497C3.28454 14.5416 3.36083 14.5099 3.4171 14.4536C3.47337 14.3974 3.50503 14.3211 3.50515 14.2415V8.16998L0.823975 10.7573V14.2415Z" fill="#2874DA"/>
<path d="M4.54224 7.1692V14.2416C4.54235 14.3211 4.57402 14.3974 4.63029 14.4537C4.68656 14.51 4.76284 14.5416 4.84242 14.5417H6.92322C7.0028 14.5416 7.07909 14.51 7.13536 14.4537C7.19163 14.3974 7.22329 14.3211 7.22341 14.2416V8.07385L5.06175 6.66777L4.54224 7.1692Z" fill="#2874DA"/>
<path d="M9.26747 9.40215L8.2605 8.74823V14.2416C8.26061 14.3211 8.29228 14.3974 8.34855 14.4537C8.40482 14.51 8.4811 14.5416 8.56068 14.5417H10.6415C10.7211 14.5416 10.7973 14.51 10.8536 14.4537C10.9099 14.3974 10.9416 14.3211 10.9417 14.2416V7.91966C10.7418 8.10489 10.5327 8.29318 10.3202 8.47977L9.26747 9.40215Z" fill="#2874DA"/>
<path d="M13.1208 5.79174C12.7087 6.21132 12.3321 6.58688 11.978 6.93243V14.2415C11.9781 14.3211 12.0098 14.3974 12.0661 14.4537C12.1223 14.5099 12.1986 14.5416 12.2782 14.5417H14.359C14.4386 14.5416 14.5149 14.5099 14.5711 14.4537C14.6274 14.3974 14.6591 14.3211 14.6592 14.2415V4.18372L14.4552 4.40272C14.0326 4.84924 13.5816 5.32441 13.1208 5.79174Z" fill="#2874DA"/>
</svg>
