<svg width="22" height="23" viewBox="0 0 22 23" fill="none" xmlns="http://www.w3.org/2000/svg">
<path d="M19.3281 9.267C19.594 9.72877 19.5498 10.2252 19.5504 10.7156C19.5504 11.2066 19.5504 11.6983 19.5504 12.2267C19.6858 12.2267 19.8089 12.224 19.932 12.2274C20.2081 12.2349 20.3625 12.3784 20.3631 12.6497C20.3665 14.2703 20.3665 15.8909 20.3631 17.5116C20.3625 17.7707 20.2088 17.9176 19.951 17.9278C19.8259 17.9325 19.7007 17.9285 19.5498 17.9285C19.5498 18.6276 19.5518 19.3042 19.5491 19.9802C19.5457 20.8786 18.9615 21.6648 18.1012 21.9144C17.9169 21.9681 17.7183 21.998 17.5265 21.998C12.3593 22.0028 7.19277 22.0028 2.02555 22.0008C0.893222 22.0001 0.000961773 21.0983 0.000281697 19.9571C-0.00039838 15.6216 0.000281697 11.2855 0.000961773 6.9493C0.000961773 5.85574 0.940827 4.90091 2.04119 4.89615C3.83999 4.88799 5.6388 4.89343 7.43692 4.89343C8.93037 4.89343 10.4231 4.89343 11.9166 4.89343C12.0084 4.89343 12.0995 4.89343 12.2063 4.89343C12.2498 3.41426 12.7946 2.17788 13.8949 1.20605C14.6947 0.499455 15.6386 0.100251 16.6989 0.0159211C18.9928 -0.165659 21.065 1.22102 21.7661 3.40474C22.4503 5.53678 21.6322 8.00478 19.3281 9.267ZM0.839496 8.58284C0.822494 8.63861 0.817734 8.64609 0.817734 8.65425C0.816373 12.4212 0.812293 16.1875 0.818414 19.9544C0.819774 20.6637 1.35567 21.1853 2.07247 21.1853C7.20433 21.1894 12.3362 21.1894 17.468 21.186C18.208 21.1853 18.7269 20.6562 18.735 19.9136C18.7418 19.3111 18.7371 18.7092 18.7357 18.1066C18.7357 18.0509 18.7221 17.9951 18.7139 17.9285C17.7843 17.9285 16.8689 17.9312 15.9535 17.9264C15.7597 17.9257 15.5638 17.9115 15.3727 17.8788C13.9221 17.6306 12.9251 16.314 13.0387 14.8042C13.1448 13.391 14.3975 12.2349 15.8372 12.2267C16.7111 12.2219 17.5843 12.226 18.4582 12.2253C18.5473 12.2253 18.6364 12.2253 18.7561 12.2253C18.6548 11.3208 18.8894 10.4333 18.5827 9.56692C18.5024 9.58732 18.4623 9.59684 18.4229 9.60704C17.0988 9.95388 15.842 9.7893 14.6437 9.12623C14.4764 9.03374 14.2676 8.97253 14.0779 8.97185C10.2184 8.96301 6.359 8.96233 2.49956 8.96845C1.91742 8.97117 1.34615 8.96641 0.839496 8.58284ZM17.1069 0.820452C14.8566 0.834733 13.021 2.67706 13.036 4.90635C13.0509 7.15196 14.8872 8.97049 17.1334 8.96437C19.3607 8.95893 21.1962 7.09416 21.1792 4.85535C21.1622 2.6451 19.307 0.80617 17.1069 0.820452ZM12.2763 5.71768C12.1968 5.7136 12.1376 5.70816 12.0791 5.70816C8.78755 5.70748 5.49666 5.7068 2.20509 5.7102C2.06227 5.7102 1.91606 5.72924 1.778 5.76529C1.12377 5.93395 0.714362 6.57118 0.854458 7.19141C0.990473 7.79192 1.46925 8.15236 2.14388 8.15236C5.83398 8.15372 9.52407 8.15304 13.2142 8.15304C13.2767 8.15304 13.34 8.15304 13.4549 8.15304C12.819 7.41719 12.4511 6.6113 12.2763 5.71768ZM19.5511 13.0489C18.259 13.0489 16.9954 12.9972 15.7373 13.0639C14.4975 13.1292 13.6957 14.2234 13.8929 15.436C14.05 16.4024 14.8919 17.1042 15.9263 17.1124C17.011 17.1212 18.0964 17.1144 19.1812 17.1144C19.2975 17.1144 19.4131 17.1144 19.5402 17.1144C19.545 17.0471 19.5504 17.0063 19.5504 16.9661C19.5511 15.6699 19.5511 14.3737 19.5511 13.0489Z" fill="#3FFF00"/>
<path d="M16.6976 13.8562C17.3811 13.8555 17.919 14.3921 17.9211 15.0763C17.9231 15.7591 17.3838 16.3004 16.7024 16.299C16.0169 16.2977 15.4789 15.7611 15.4782 15.079C15.4782 14.3962 16.0162 13.8562 16.6976 13.8562ZM17.1036 15.0667C17.0961 14.8559 16.8887 14.6628 16.682 14.673C16.4712 14.6839 16.2801 14.8954 16.295 15.1007C16.31 15.302 16.5058 15.485 16.7037 15.4816C16.9146 15.4789 17.1111 15.2742 17.1036 15.0667Z" fill="#3FFF00"/>
<path d="M16.3558 7.00583L14.554 5.15834L14.8999 4.80368L16.3558 6.29653L19.4447 3.12939L19.7906 3.48405L16.3558 7.00583Z" fill="#3FFF00" stroke="#3FFF00" stroke-width="0.4"/>
</svg>
