<svg width="87" height="87" viewBox="0 0 87 87" fill="none" xmlns="http://www.w3.org/2000/svg">
<circle cx="43.5" cy="43.5" r="42.5" fill="#D73F3F" fill-opacity="0.2" stroke="#D73F3F"/>
<path d="M51.7509 51.5482C51.8299 51.6272 51.8925 51.721 51.9353 51.8241C51.978 51.9273 52 52.0379 52 52.1496C52 52.2613 51.978 52.3718 51.9353 52.475C51.8925 52.5782 51.8299 52.6719 51.7509 52.7509C51.6719 52.8299 51.5782 52.8925 51.475 52.9353C51.3718 52.978 51.2613 53 51.1496 53C51.0379 53 50.9273 52.978 50.8241 52.9353C50.721 52.8925 50.6272 52.8299 50.5482 52.7509L43.5 45.7016L36.4518 52.7509C36.2923 52.9104 36.076 53 35.8504 53C35.6249 53 35.4086 52.9104 35.2491 52.7509C35.0896 52.5914 35 52.3751 35 52.1496C35 51.924 35.0896 51.7077 35.2491 51.5482L42.2984 44.5L35.2491 37.4518C35.0896 37.2923 35 37.076 35 36.8504C35 36.6249 35.0896 36.4086 35.2491 36.2491C35.4086 36.0896 35.6249 36 35.8504 36C36.076 36 36.2923 36.0896 36.4518 36.2491L43.5 43.2984L50.5482 36.2491C50.7077 36.0896 50.924 36 51.1496 36C51.3751 36 51.5914 36.0896 51.7509 36.2491C51.9104 36.4086 52 36.6249 52 36.8504C52 37.076 51.9104 37.2923 51.7509 37.4518L44.7016 44.5L51.7509 51.5482Z" fill="#D73F3F"/>
</svg>
