<svg width="16" height="16" viewBox="0 0 16 16" fill="none" xmlns="http://www.w3.org/2000/svg">
<path d="M2.47201 14.2651V10.5401C2.47201 9.85745 1.91863 9.30408 1.236 9.30408C0.553378 9.30408 0 9.85746 0 10.5401V14.2651C0 14.9477 0.553378 15.5011 1.236 15.5011C1.91863 15.5011 2.47201 14.9477 2.47201 14.2651Z" fill="#2874DA"/>
<path d="M9.49656 9.60371C10.1808 9.60371 10.8496 9.40082 11.4185 9.02069C11.9874 8.64056 12.4308 8.10027 12.6927 7.46814C12.9545 6.83601 13.023 6.14043 12.8895 5.46936C12.7561 4.79829 12.4266 4.18188 11.9428 3.69806C11.4589 3.21425 10.8425 2.88477 10.1715 2.75129C9.5004 2.6178 8.80482 2.68631 8.17268 2.94815C7.54055 3.20999 7.00026 3.65339 6.62013 4.2223C6.24 4.7912 6.03711 5.46005 6.03711 6.14426C6.03801 7.06149 6.40278 7.94089 7.05135 8.58947C7.69993 9.23805 8.57933 9.60281 9.49656 9.60371ZM9.44378 6.43198C8.7015 6.35878 8.12095 5.78844 8.12095 5.09724C8.12095 4.43327 8.65894 3.88166 9.36036 3.77611V3.20237H9.88813V3.77441C10.5691 3.89358 11.0901 4.43837 11.0901 5.09043H10.5555C10.5555 4.64267 10.1265 4.27664 9.59871 4.27664C9.07094 4.27664 8.64361 4.64267 8.64361 5.09043C8.64361 5.53818 9.07094 5.90421 9.59871 5.90421V5.91273C10.3733 5.98593 10.9777 6.5784 10.9777 7.29685C10.9665 7.60855 10.8531 7.90792 10.655 8.14881C10.4569 8.3897 10.185 8.55875 9.88132 8.62989V9.08616H9.36376V8.68437C8.55338 8.64521 7.90644 8.03913 7.90644 7.29685H8.43421C8.43421 7.77354 8.88877 8.16171 9.44719 8.16171C10.0056 8.16171 10.4687 7.77354 10.4687 7.29685C10.4687 6.82015 10.0022 6.43198 9.44378 6.43198Z" fill="#2874DA"/>
<path d="M15.879 10.6456C15.7927 10.5351 15.6696 10.4594 15.532 10.4322C15.3945 10.405 15.2518 10.4282 15.1299 10.4975L11.8204 12.3625C11.8128 12.3668 11.8031 12.3642 11.7986 12.3567C11.7924 12.346 11.7769 12.3461 11.7705 12.3567C11.6682 12.5258 11.5248 12.6664 11.3533 12.7652C11.1739 12.8687 10.9702 12.9228 10.7631 12.9219H6.94098C6.79524 12.9219 6.6771 12.8037 6.6771 12.658C6.6771 12.5122 6.79524 12.3941 6.94098 12.3941H10.7631C10.9337 12.3941 11.0974 12.3263 11.2181 12.2056C11.3388 12.0849 11.4066 11.9212 11.4066 11.7505C11.4066 11.5799 11.3388 11.4162 11.2181 11.2955C11.0974 11.1748 10.9337 11.107 10.7631 11.107H7.47726C6.98978 11.1066 6.50944 10.9898 6.07612 10.7665C5.75486 10.5992 5.3981 10.5116 5.0359 10.5111H5.00735C3.89481 10.5111 2.99292 11.413 2.99292 12.5256C2.99292 13.457 3.63142 14.2669 4.53706 14.4843L8.6656 15.4756C8.82115 15.5125 8.98245 15.5182 9.14023 15.4925C9.29801 15.4668 9.44915 15.4101 9.58494 15.3258L15.7275 11.4969C15.7962 11.4534 15.8551 11.396 15.9005 11.3285C15.9458 11.261 15.9766 11.1847 15.9909 11.1047C16.0051 11.0246 16.0025 10.9424 15.9833 10.8634C15.964 10.7843 15.9285 10.7102 15.879 10.6456Z" fill="#2874DA"/>
<path d="M9.88812 1.38752V0.263885C9.88812 0.118146 9.76998 0 9.62424 0C9.4785 0 9.36035 0.118146 9.36035 0.263886V1.38752C9.36035 1.53326 9.4785 1.65141 9.62424 1.65141C9.76998 1.65141 9.88812 1.53326 9.88812 1.38752Z" fill="#2874DA"/>
<path d="M6.39587 2.4587L5.60509 1.66044C5.50252 1.5569 5.33544 1.55611 5.23191 1.65868C5.12837 1.76124 5.12758 1.92833 5.23015 2.03186L6.02093 2.83013C6.12349 2.93367 6.29058 2.93446 6.39411 2.83189C6.49765 2.72932 6.49844 2.56224 6.39587 2.4587Z" fill="#2874DA"/>
<path d="M4.66786 5.66711L3.5443 5.65377C3.39857 5.65204 3.27903 5.76878 3.2773 5.91451C3.27557 6.06024 3.39231 6.17978 3.53804 6.18151L4.6616 6.19484C4.80733 6.19657 4.92687 6.07984 4.9286 5.93411C4.93032 5.78838 4.81359 5.66884 4.66786 5.66711Z" fill="#2874DA"/>
<path d="M13.3941 1.66186L12.6032 2.45999C12.5006 2.56351 12.5014 2.73059 12.6049 2.83318C12.7084 2.93576 12.8755 2.935 12.9781 2.83148L13.769 2.03335C13.8716 1.92983 13.8709 1.76275 13.7673 1.66017C13.6638 1.55758 13.4967 1.55834 13.3941 1.66186Z" fill="#2874DA"/>
<path d="M15.4526 5.65411L14.3308 5.66723C14.185 5.66894 14.0683 5.78846 14.07 5.93419C14.0717 6.07992 14.1912 6.19667 14.3369 6.19497L15.4588 6.18185C15.6045 6.18014 15.7213 6.06062 15.7196 5.91489C15.7179 5.76917 15.5984 5.65241 15.4526 5.65411Z" fill="#2874DA"/>
</svg>
