<svg width="9" height="16" viewBox="0 0 9 16" fill="none" xmlns="http://www.w3.org/2000/svg">
<path d="M4.95739 0V2.51657H3.66123V0H4.95739ZM4.79747 13.7443V16H3.50973V13.7443H4.79747ZM6.06839 11.0258C6.06839 10.7003 6.00105 10.417 5.86639 10.1757C5.73733 9.92881 5.52411 9.70717 5.22672 9.51078C4.92934 9.30878 4.53095 9.12081 4.03156 8.94687C3.31334 8.69437 2.6849 8.41101 2.14624 8.09679C1.61319 7.77696 1.19797 7.38418 0.900579 6.91846C0.608802 6.44713 0.462914 5.86077 0.462914 5.15939C0.462914 4.46923 0.620025 3.87165 0.934245 3.36665C1.25408 2.86165 1.69735 2.47168 2.26407 2.19674C2.83079 1.9218 3.4929 1.78432 4.25039 1.78432C4.83395 1.78432 5.35858 1.8713 5.8243 2.04524C6.29563 2.21918 6.69683 2.47449 7.02788 2.81115C7.35893 3.14782 7.61143 3.56304 7.78538 4.05681C7.96493 4.54498 8.05471 5.10608 8.05471 5.74014H6.03472C6.03472 5.38103 5.99264 5.0612 5.90847 4.78064C5.82991 4.49448 5.71208 4.2532 5.55497 4.05681C5.39786 3.85481 5.20708 3.70051 4.98264 3.5939C4.76381 3.48729 4.51412 3.43398 4.23356 3.43398C3.83517 3.43398 3.50693 3.50973 3.24882 3.66123C2.99071 3.80712 2.79993 4.00912 2.67649 4.26723C2.55865 4.52534 2.49974 4.81992 2.49974 5.15097C2.49974 5.4708 2.56146 5.75136 2.6849 5.99264C2.80835 6.23391 3.01876 6.45274 3.31615 6.64913C3.61915 6.83991 4.03437 7.03349 4.56181 7.22988C5.28564 7.48799 5.91127 7.77696 6.43872 8.09679C6.97177 8.41101 7.38138 8.80098 7.66754 9.2667C7.95932 9.72681 8.10521 10.3076 8.10521 11.0089C8.10521 11.7328 7.93688 12.3472 7.60021 12.8522C7.26916 13.3572 6.80344 13.7415 6.20305 14.0053C5.60828 14.2634 4.91531 14.3924 4.12415 14.3924C3.62476 14.3924 3.12818 14.3279 2.6344 14.1988C2.14624 14.0642 1.70296 13.8453 1.30458 13.5423C0.90619 13.2393 0.589164 12.8382 0.353498 12.3388C0.117833 11.8338 0 11.2166 0 10.4871H2.03682C2.03682 10.9248 2.09574 11.2895 2.21357 11.5813C2.3314 11.873 2.49132 12.1031 2.69332 12.2714C2.89532 12.4398 3.11976 12.5604 3.36665 12.6334C3.61915 12.7063 3.87165 12.7428 4.12415 12.7428C4.54498 12.7428 4.89847 12.6726 5.18464 12.5324C5.47642 12.3865 5.69525 12.1845 5.84114 11.9264C5.99264 11.6626 6.06839 11.3624 6.06839 11.0258Z" fill="#2874DA"/>
</svg>
