<svg width="14" height="16" viewBox="0 0 14 16" fill="none" xmlns="http://www.w3.org/2000/svg">
<path d="M12.8333 6.15385V12.9231C12.8333 13.2629 12.5721 13.5385 12.25 13.5385C11.9279 13.5385 11.6667 13.2629 11.6667 12.9231V10.4615C11.6667 9.44197 10.8831 8.61539 9.91667 8.61539H9.33333V1.23077C9.33333 0.551015 8.81102 0 8.16667 0H1.16667C0.522317 0 0 0.551015 0 1.23077V14.7692C0 15.449 0.522317 16 1.16667 16H8.16667C8.81102 16 9.33333 15.449 9.33333 14.7692V9.84615H9.91667C10.2388 9.84615 10.5 10.1217 10.5 10.4615V12.9231C10.5 13.9426 11.2835 14.7692 12.25 14.7692C13.2165 14.7692 14 13.9426 14 12.9231V4.92308C14 4.24332 13.4777 3.69231 12.8333 3.69231V1.83385C12.827 1.49883 12.5677 1.23065 12.25 1.23077C11.9215 1.23655 11.6594 1.52209 11.6649 1.8688C11.6651 1.88172 11.6657 1.89477 11.6667 1.90769V4.92308C11.6667 5.60283 12.189 6.15385 12.8333 6.15385C13.4777 6.15385 14 5.60283 14 4.92308C14 4.24332 13.4777 3.69231 12.8333 3.69231M8.16667 6.76923C8.16667 7.10905 7.90545 7.38462 7.58333 7.38462H1.75C1.42788 7.38462 1.16667 7.10905 1.16667 6.76923V3.07692C1.16667 2.73711 1.42788 2.46154 1.75 2.46154H7.58333C7.90545 2.46154 8.16667 2.73711 8.16667 3.07692V6.76923Z" fill="#2874DA"/>
</svg>
