<svg width="16" height="16" viewBox="0 0 16 16" fill="none" xmlns="http://www.w3.org/2000/svg">
<path fill-rule="evenodd" clip-rule="evenodd" d="M1.33334 6V7.33333C1.33334 7.73333 1.6 8 2 8C2.4 8 2.66667 7.73333 2.66667 7.33333V6C2.66667 4.86667 3.53334 4 4.66667 4H12.4L10.8667 5.53333C10.6 5.8 10.6 6.2 10.8667 6.46667C11 6.6 11.1333 6.66667 11.3333 6.66667C11.5333 6.66667 11.6667 6.6 11.8 6.46667L14.4667 3.8C14.5 3.76667 14.5167 3.73333 14.5333 3.7C14.55 3.66667 14.5667 3.63333 14.6 3.6C14.6667 3.4 14.6667 3.2 14.6 3.06667C14.6 3 14.5333 2.93333 14.4667 2.86667L11.8 0.2C11.5333 -0.0666667 11.1333 -0.0666667 10.8667 0.2C10.6 0.466667 10.6 0.866667 10.8667 1.13333L12.4 2.66667H4.66667C2.8 2.66667 1.33334 4.13333 1.33334 6ZM13.3333 8.66667C13.3333 8.26667 13.6 8 14 8C14.4 8 14.6667 8.26667 14.6667 8.66667V10C14.6667 11.8667 13.2 13.3333 11.3333 13.3333H3.6L5.13334 14.8667C5.4 15.1333 5.4 15.5333 5.13334 15.8C5 15.9333 4.86667 16 4.66667 16C4.46667 16 4.33334 15.9333 4.2 15.8L1.53334 13.1333C1.5 13.1 1.48334 13.0667 1.46667 13.0333C1.45 13 1.43334 12.9667 1.4 12.9333C1.33334 12.7333 1.33334 12.5333 1.4 12.4C1.4 12.3333 1.46667 12.2667 1.53333 12.2L1.53334 12.2L4.2 9.53333C4.46667 9.26667 4.86667 9.26667 5.13334 9.53333C5.4 9.8 5.4 10.2 5.13334 10.4667L3.6 12H11.3333C12.4667 12 13.3333 11.1333 13.3333 10V8.66667Z" fill="#2874DA"/>
<mask id="mask0_321_1707" style="mask-type:luminance" maskUnits="userSpaceOnUse" x="1" y="0" width="14" height="16">
<path fill-rule="evenodd" clip-rule="evenodd" d="M1.33334 6V7.33333C1.33334 7.73333 1.6 8 2 8C2.4 8 2.66667 7.73333 2.66667 7.33333V6C2.66667 4.86667 3.53334 4 4.66667 4H12.4L10.8667 5.53333C10.6 5.8 10.6 6.2 10.8667 6.46667C11 6.6 11.1333 6.66667 11.3333 6.66667C11.5333 6.66667 11.6667 6.6 11.8 6.46667L14.4667 3.8C14.5 3.76667 14.5167 3.73333 14.5333 3.7C14.55 3.66667 14.5667 3.63333 14.6 3.6C14.6667 3.4 14.6667 3.2 14.6 3.06667C14.6 3 14.5333 2.93333 14.4667 2.86667L11.8 0.2C11.5333 -0.0666667 11.1333 -0.0666667 10.8667 0.2C10.6 0.466667 10.6 0.866667 10.8667 1.13333L12.4 2.66667H4.66667C2.8 2.66667 1.33334 4.13333 1.33334 6ZM13.3333 8.66667C13.3333 8.26667 13.6 8 14 8C14.4 8 14.6667 8.26667 14.6667 8.66667V10C14.6667 11.8667 13.2 13.3333 11.3333 13.3333H3.6L5.13334 14.8667C5.4 15.1333 5.4 15.5333 5.13334 15.8C5 15.9333 4.86667 16 4.66667 16C4.46667 16 4.33334 15.9333 4.2 15.8L1.53334 13.1333C1.5 13.1 1.48334 13.0667 1.46667 13.0333C1.45 13 1.43334 12.9667 1.4 12.9333C1.33334 12.7333 1.33334 12.5333 1.4 12.4C1.4 12.3333 1.46667 12.2667 1.53333 12.2L1.53334 12.2L4.2 9.53333C4.46667 9.26667 4.86667 9.26667 5.13334 9.53333C5.4 9.8 5.4 10.2 5.13334 10.4667L3.6 12H11.3333C12.4667 12 13.3333 11.1333 13.3333 10V8.66667Z" fill="white"/>
</mask>
<g mask="url(#mask0_321_1707)">
<rect width="16" height="16" fill="#2874DA"/>
</g>
</svg>
